<svg xmlns="http://www.w3.org/2000/svg" viewBox="5 0 30 128" width="10px" height="32px" fill="currentColor">
    <rect x="25.01" y="120" width="6.44" height="6.44"/>
    <rect x="25.01" y="104" width="6.44" height="6.44"/>
    <rect x="25.01" y="88" width="6.44" height="6.44"/>
    <rect x="25.01" y="72" width="6.44" height="6.44"/>
    <rect x="25.01" y="56" width="6.44" height="6.44"/>
    <rect x="25.01" y="40" width="6.44" height="6.44"/>
    <rect x="25.01" y="24" width="6.44" height="6.44"/>
    <rect x="25.01" y="8" width="6.44" height="6.44"/>
    <rect x="12.13" y="120" width="6.44" height="6.44"/>
    <rect x="12.13" y="104" width="6.44" height="6.44"/>
    <rect x="12.13" y="88" width="6.44" height="6.44"/>
    <rect x="12.13" y="72" width="6.44" height="6.44"/>
    <rect x="12.13" y="56" width="6.44" height="6.44"/>
    <rect x="12.13" y="40" width="6.44" height="6.44"/>
    <rect x="12.13" y="24" width="6.44" height="6.44"/>
    <rect x="12.13" y="8" width="6.44" height="6.44"/>
</svg>