<?xml version="1.0" standalone="no"?>
<!DOCTYPE svg PUBLIC "-//W3C//DTD SVG 1.1//EN">
<svg class="icon" viewBox="0 0 1024 1024" version="1.1" xmlns="http://www.w3.org/2000/svg"
     width="200" height="200">
    <path d="M904.533333 740.693333c32.426667-58.026667 8.533333-141.653333-63.146666-230.4 75.093333-90.453333 98.986667-172.373333 66.56-232.106666-32.426667-58.026667-116.053333-76.8-230.4-56.32-39.253333-109.226667-98.986667-170.666667-163.84-170.666667s-126.293333 63.146667-165.546667 174.08C237.226667 204.8 151.893333 225.28 119.466667 283.306667c-34.133333 58.026667-8.533333 141.653333 63.146666 230.4-75.093333 90.453333-98.986667 172.373333-66.56 232.106666 10.24 17.066667 25.6 30.72 40.96 40.96 42.666667 23.893333 107.52 30.72 187.733334 17.066667 27.306667 78.506667 64.853333 131.413333 107.52 155.306667 17.066667 10.24 35.84 15.36 56.32 15.36 64.853333 0 126.293333-63.146667 165.546666-174.08 114.346667 18.773333 197.973333-3.413333 230.4-59.733334z"
          fill="#00B2D8"/>
    <path d="M389.12 527.36c15.36-29.013333-17.066667-51.2-37.546667-64.853333-3.413333 0-6.826667-1.706667-10.24-1.706667-5.12 0-10.24 1.706667-13.653333 6.826667-5.12 6.826667-3.413333 15.36 3.413333 20.48h1.706667c6.826667 5.12 27.306667 17.066667 27.306667 23.893333-1.706667 1.706667-3.413333 3.413333-8.533334 3.413333-6.826667 0-17.066667-1.706667-23.893333-5.12-1.706667 0-3.413333-1.706667-5.12-1.706666-6.826667 0-11.946667 3.413333-13.653333 10.24-3.413333 8.533333 0 17.066667 8.533333 20.48 3.413333 1.706667 18.773333 6.826667 35.84 6.826666 13.653333 0 27.306667-3.413333 35.84-18.773333z m327.68-8.533333c-1.706667-5.12-8.533333-10.24-13.653333-10.24-1.706667 0-3.413333 0-5.12 1.706666-8.533333 3.413333-17.066667 5.12-23.893334 5.12-5.12 0-8.533333 0-8.533333-3.413333 0-5.12 20.48-18.773333 27.306667-23.893333h1.706666c6.826667-5.12 8.533333-13.653333 3.413334-20.48-5.12-5.12-10.24-6.826667-15.36-6.826667-3.413333 0-5.12 0-8.533334 1.706667-20.48 13.653333-52.906667 34.133333-37.546666 64.853333 8.533333 13.653333 22.186667 18.773333 35.84 18.773333 17.066667 0 34.133333-6.826667 35.84-6.826666 6.826667-3.413333 10.24-13.653333 8.533333-20.48z m-68.266667 117.76c0-3.413333-1.706667-6.826667-1.706666-6.826667s-25.6-73.386667-68.266667-104.106667c1.706667-5.12 1.706667-8.533333 1.706667-13.653333 0-5.12 0-8.533333-1.706667-11.946667 40.96-30.72 68.266667-104.106667 68.266667-104.106666s0-1.706667 1.706666-3.413334h1.706667c18.773333 0 34.133333-15.36 34.133333-34.133333s-15.36-34.133333-34.133333-34.133333-34.133333 15.36-34.133333 34.133333c0 11.946667 5.12 22.186667 13.653333 27.306667-3.413333 39.253333-37.546667 69.973333-64.853333 88.746666-5.12-5.12-11.946667-8.533333-17.066667-10.24 3.413333-25.6-6.826667-54.613333-15.36-73.386666 8.533333-3.413333 15.36-11.946667 20.48-20.48 8.533333-15.36 11.946667-34.133333 11.946667-37.546667 1.706667-8.533333-5.12-17.066667-13.653334-18.773333-6.826667-1.706667-13.653333 1.706667-15.36 8.533333-1.706667 1.706667-1.706667 3.413333-1.706666 5.12-1.706667 8.533333-5.12 18.773333-8.533334 25.6-1.706667 3.413333-5.12 6.826667-6.826666 6.826667-5.12-3.413333-6.826667-27.306667-6.826667-37.546667v-1.706667c-1.706667-8.533333-8.533333-13.653333-17.066667-13.653333-5.12 0-10.24 3.413333-13.653333 8.533333-3.413333 1.706667-3.413333 5.12-3.413333 8.533334 1.706667 23.893333 3.413333 63.146667 35.84 66.56 10.24 22.186667 8.533333 49.493333 3.413333 69.973333-8.533333 1.706667-17.066667 6.826667-22.186667 11.946667-5.12-44.373333-73.386667-78.506667-102.4-92.16 0-1.706667 1.706667-5.12 1.706667-6.826667 0-18.773333-15.36-34.133333-34.133333-34.133333s-34.133333 15.36-34.133334 34.133333 15.36 34.133333 34.133334 34.133333c10.24 0 18.773333-5.12 25.6-11.946666 58.026667 18.773333 93.866667 98.986667 93.866666 98.986666s0 1.706667 1.706667 3.413334c-3.413333 5.12-3.413333 8.533333-3.413333 13.653333 0 5.12 0 8.533333 1.706666 11.946667 0 1.706667-1.706667 3.413333-1.706666 3.413333S430.08 631.466667 358.4 631.466667c-18.773333 0-34.133333 15.36-34.133333 34.133333s15.36 34.133333 34.133333 34.133333 34.133333-15.36 34.133333-34.133333c0-8.533333-3.413333-15.36-8.533333-22.186667 23.893333-8.533333 104.106667-44.373333 109.226667-93.866666 6.826667 6.826667 15.36 10.24 25.6 11.946666 3.413333 23.893333 0 49.493333-18.773334 69.973334-13.653333 1.706667-22.186667 11.946667-27.306666 22.186666-8.533333 15.36-11.946667 34.133333-11.946667 37.546667-1.706667 8.533333 5.12 17.066667 13.653333 18.773333 6.826667 1.706667 13.653333-1.706667 15.36-8.533333 1.706667-1.706667 1.706667-3.413333 1.706667-5.12 1.706667-8.533333 5.12-18.773333 8.533333-25.6 1.706667-3.413333 5.12-6.826667 6.826667-6.826667 5.12 3.413333 6.826667 27.306667 6.826667 37.546667v1.706667c1.706667 8.533333 8.533333 13.653333 17.066666 13.653333 5.12 0 10.24-3.413333 13.653334-8.533333 1.706667-1.706667 1.706667-5.12 1.706666-8.533334-1.706667-22.186667-3.413333-54.613333-25.6-64.853333 5.12-10.24 22.186667-44.373333 23.893334-75.093333 6.826667-1.706667 13.653333-5.12 18.773333-10.24 25.6 17.066667 58.026667 46.08 64.853333 81.92-17.066667 1.706667-30.72 15.36-30.72 34.133333s15.36 34.133333 34.133334 34.133333 34.133333-15.36 34.133333-34.133333c0-13.653333-6.826667-23.893333-17.066667-29.013333z"
          fill="#FFFFFF"/>
</svg>